<?xml version="1.0" encoding="iso-8859-1"?>
<!-- Generator: Adobe Illustrator 19.0.0, SVG Export Plug-In . SVG Version: 6.00 Build 0)  -->
<svg version="1.1" id="Layer_1" xmlns="http://www.w3.org/2000/svg" xmlns:xlink="http://www.w3.org/1999/xlink" x="0px" y="0px"
	 viewBox="0 0 475.77 453.58" style="enable-background:new 0 0 475.77 453.58;" xml:space="preserve">
<g id="XMLID_27_">
	<path id="XMLID_142_" style="fill:#6A6663;" d="M18.953,364.193L86.13,401.14l22.952-18.474l58.22,31.909h187.536l44.785-30.79
		l-190.335,1.679l-54.861-16.234l-48.703-14.555c0,0-44.225,2.799-45.904,2.799S18.953,364.193,18.953,364.193z"/>
	<polygon id="XMLID_127_" style="fill:#FFFFFC;" points="276.465,33.243 142.111,373.047 88.929,355.133 16.714,363.53 
		92.288,240.932 118.039,284.037 	"/>
	<polygon id="XMLID_141_" style="fill:#DDD8CF;" points="275.066,388.442 178.219,390.401 142.111,373.047 276.465,33.243 	"/>
	<polygon id="XMLID_143_" style="fill:#93918C;" points="404.662,384.626 275.066,388.442 276.465,33.243 	"/>
	<polygon id="XMLID_144_" style="fill:#B7B3A9;" points="443.475,353.827 404.662,384.626 276.465,35.482 	"/>
</g>
</svg>
