<?xml version="1.0" encoding="iso-8859-1"?>
<!-- Generator: Adobe Illustrator 19.0.0, SVG Export Plug-In . SVG Version: 6.00 Build 0)  -->
<svg version="1.1" id="Layer_1" xmlns="http://www.w3.org/2000/svg" xmlns:xlink="http://www.w3.org/1999/xlink" x="0px" y="0px"
	 viewBox="0 0 475.77 453.58" style="enable-background:new 0 0 475.77 453.58;" xml:space="preserve">
<g id="XMLID_113_">
	<polygon id="XMLID_110_" style="fill:#868078;" points="106.286,136.015 3.851,326.559 208.005,327.633 	"/>
	<polygon id="XMLID_111_" style="fill:#A9A297;" points="472.106,327.633 208.005,327.633 105.928,136.015 368.238,136.015 	"/>
	<path id="XMLID_112_" style="fill:#3F3C3B;" d="M27.67,326.684c0,0,15.579,1.169,28.115-8.501s26.146-21.471,31.16-35.458
		c5.449-15.199,11.819-63.753,12.178-71.096c0.358-7.342,7.88-6.984,7.88,9.85s3.223,54.799,15.401,71.275
		s22.564,24.713,34.026,27.221c11.461,2.507,51.218,3.541,51.218,3.541l189.111,0.537c0,0-37.249,3.085-73.782,3.444
		s-140.042-1.074-149.355,0s-123.745-0.694-123.745-0.694L27.67,326.684z"/>
</g>
</svg>
