<?xml version="1.0" encoding="iso-8859-1"?>
<!-- Generator: Adobe Illustrator 19.0.0, SVG Export Plug-In . SVG Version: 6.00 Build 0)  -->
<svg version="1.1" id="Layer_1" xmlns="http://www.w3.org/2000/svg" xmlns:xlink="http://www.w3.org/1999/xlink" x="0px" y="0px"
	 viewBox="0 0 540.23 520.529" style="enable-background:new 0 0 540.23 520.529;" xml:space="preserve">
<g id="XMLID_136_">
	<path id="XMLID_138_" style="fill:#FFFFFF;" d="M214.563,175.835c46.277,0,84.843,32.944,93.573,76.654
		c10.212-7.182,22.637-11.435,36.071-11.435c34.701,0,62.834,28.132,62.834,62.834c0,34.702-28.133,62.833-62.834,62.833v0.132
		H210.983v-0.313c-51.04-1.897-91.864-43.759-91.864-95.263C119.119,218.566,161.851,175.835,214.563,175.835 M214.563,144.02
		c-70.169,0-127.258,57.088-127.258,127.258c0,58.077,38.466,106.946,91.864,122.206l9.492,2.617l11.842,1.362l143.703,1.205
		l18.228-2.452l13.586-3.181c36.587-13.095,62.833-48.113,62.833-89.147c0-52.189-42.459-94.648-94.648-94.648
		c-5.968,0-11.868,0.556-17.641,1.648C304.796,170.658,262.157,144.02,214.563,144.02L214.563,144.02z"/>
	<path id="XMLID_137_" style="fill:#FFFFFF;" d="M407.096,162.088c-1.081,0.05-2.162,0.082-3.25,0.082
		c-1.557,0-2.948-0.065-4.256-0.198c-27.108-2.757-47.147-26.277-45.618-53.545l1.69-30.184l-29.503,6.603
		c-36.963,8.272-64.362,39.057-68.174,76.604c-0.295,2.888-0.426,5.755-0.435,8.6l24.047,12.513
		c-1.181-6.056-1.532-12.368-0.876-18.803v0c2.883-28.377,23.957-50.686,50.431-56.611c-2.187,39.029,26.862,73.567,66.127,77.561
		c2.206,0.224,4.393,0.315,6.568,0.315c1.448,0,2.886-0.04,4.322-0.108c-4.235,18.258-16.134,33.328-31.818,42.036l24.004,11.037
		c14.689-11.998,25.61-28.644,30.078-47.91l6.823-29.411L407.096,162.088z"/>
</g>
</svg>
