<?xml version="1.0" encoding="iso-8859-1"?>
<!-- Generator: Adobe Illustrator 19.0.0, SVG Export Plug-In . SVG Version: 6.00 Build 0)  -->
<svg version="1.1" xmlns="http://www.w3.org/2000/svg" xmlns:xlink="http://www.w3.org/1999/xlink" x="0px" y="0px"
	 viewBox="0 0 518.018 415.961" style="enable-background:new 0 0 518.018 415.961;" xml:space="preserve">
<g id="Layer_1_1_">
	<g id="XMLID_1_">
		<path id="XMLID_185_" style="fill:#53352B;" d="M494.801,406.265L12.308,272.055c-8.943-2.488-14.177-11.754-11.689-20.697
			l1.201-4.32c2.488-8.943,11.754-14.177,20.698-11.689l482.493,134.21c8.943,2.488,14.177,11.754,11.689,20.697l-1.201,4.32
			C513.011,403.52,503.744,408.753,494.801,406.265z"/>
		<path id="XMLID_2_" style="fill:#53352B;" d="M232.803,309.156l260.255-80.235c9.022-2.781,19.596,3.189,23.498,13.267
			l0.001,0.003c3.902,10.078-0.286,20.6-9.308,23.382l-216.687,66.803L232.803,309.156z"/>
		<path id="XMLID_3_" style="fill:#53352B;" d="M14.983,376.353l168.7-52.116c8.954-2.766,18.454,2.251,21.219,11.205l1.984,6.428
			c2.764,8.952-2.252,18.449-11.203,21.215l-168.7,52.116c-8.954,2.766-18.454-2.251-21.219-11.205l-1.984-6.428
			C1.017,388.616,6.032,379.118,14.983,376.353z"/>
		<path id="XMLID_4_" style="fill:#F68C47;" d="M365.772,196.558C365.772,137.285,317.55,64.42,258.45,0
			c-57.589,72.905-107.322,137.285-107.322,196.558S199.177,303.88,258.45,303.88S365.772,255.83,365.772,196.558z"/>
		<path id="XMLID_5_" style="fill:#FCE6A8;" d="M319.648,235.416c0-32.802-31.209-66.422-59.394-108.778
			c-40.119,59.205-81.087,98.026-46.23,145.005c7.246,9.766,17.259,17.431,28.962,20.734
			C283.187,303.721,319.648,273.826,319.648,235.416z"/>
	</g>
</g>
<g id="Layer_1">
</g>
</svg>
