<?xml version="1.0" encoding="utf-8"?>
<!-- Generator: Adobe Illustrator 19.0.0, SVG Export Plug-In . SVG Version: 6.00 Build 0)  -->
<svg version="1.1" id="Layer_1" xmlns="http://www.w3.org/2000/svg" xmlns:xlink="http://www.w3.org/1999/xlink" x="0px" y="0px"
	 viewBox="0 0 64 64" style="enable-background:new 0 0 64 64;" xml:space="preserve">
<style type="text/css">
	.st0{fill:#629DD4;stroke:#FFFFFF;stroke-width:1.2;stroke-linejoin:round;}
	.st1{fill:#629DD4;}
</style>
<g id="cloudy">
	<g id="XMLID_55_" transform="translate(20,10)">
		<g id="XMLID_56_">
			<path id="XMLID_57_" class="st0" d="M28.7,20c0-4.6-3.7-8.2-8.2-8.2c-1,0-1.9,0.2-2.8,0.5c-0.3-3.4-3.1-6.2-6.6-6.2
				c-3.7,0-6.7,3-6.7,6.7c0,0.8,0.2,1.6,0.4,2.3C4.5,15,4.1,15,3.8,15c-3.7,0-6.7,3-6.7,6.7c0,3.6,2.9,6.6,6.5,6.7h17.2
				C25.2,27.9,28.7,24.4,28.7,20z"/>
		</g>
	</g>
</g>
<path id="XMLID_2_" class="st1" d="M37.7,39.2H14.6c-0.2,0-0.4,0.2-0.4,0.4v0.2c0,0.2,0.2,0.4,0.4,0.4h23.2c0.2,0,0.4-0.2,0.4-0.4
	v-0.2C38.1,39.3,38,39.2,37.7,39.2z"/>
<path id="XMLID_6_" class="st1" d="M49.7,43.7H26.6c-0.2,0-0.4,0.2-0.4,0.4v0.2c0,0.2,0.2,0.4,0.4,0.4h23.2c0.2,0,0.4-0.2,0.4-0.4
	v-0.2C50.1,43.8,49.9,43.7,49.7,43.7z"/>
<path id="XMLID_5_" class="st1" d="M52.8,41.5H29.7c-0.2,0-0.4,0.2-0.4,0.4v0.2c0,0.2,0.2,0.4,0.4,0.4h23.2c0.2,0,0.4-0.2,0.4-0.4
	v-0.2C53.2,41.7,53,41.5,52.8,41.5z"/>
<path id="XMLID_9_" class="st1" d="M50.9,46H33c-0.2,0-0.4,0.2-0.4,0.4v0.2c0,0.2,0.2,0.4,0.4,0.4h17.9c0.2,0,0.4-0.2,0.4-0.4v-0.2
	C51.3,46.2,51.1,46,50.9,46z"/>
<path id="XMLID_15_" class="st1" d="M31.1,46H15.3c-0.2,0-0.4,0.2-0.4,0.4v0.2c0,0.2,0.2,0.4,0.4,0.4h15.9c0.2,0,0.4-0.2,0.4-0.4
	v-0.2C31.5,46.2,31.4,46,31.1,46z"/>
<path id="XMLID_10_" class="st1" d="M27.8,41.5H11.9c-0.2,0-0.4,0.2-0.4,0.4v0.2c0,0.2,0.2,0.4,0.4,0.4h15.9c0.2,0,0.4-0.2,0.4-0.4
	v-0.2C28.2,41.7,28,41.5,27.8,41.5z"/>
<path id="XMLID_11_" class="st1" d="M34.9,48.4H19c-0.2,0-0.4,0.2-0.4,0.4V49c0,0.2,0.2,0.4,0.4,0.4h15.9c0.2,0,0.4-0.2,0.4-0.4
	v-0.2C35.3,48.6,35.1,48.4,34.9,48.4z"/>
<path id="XMLID_12_" class="st1" d="M24.8,43.7H13.6c-0.2,0-0.4,0.2-0.4,0.4v0.2c0,0.2,0.2,0.4,0.4,0.4h11.1c0.2,0,0.4-0.2,0.4-0.4
	v-0.2C25.2,43.8,25,43.7,24.8,43.7z"/>
<path id="XMLID_17_" class="st1" d="M47.9,48.4H36.7c-0.2,0-0.4,0.2-0.4,0.4V49c0,0.2,0.2,0.4,0.4,0.4h11.1c0.2,0,0.4-0.2,0.4-0.4
	v-0.2C48.3,48.6,48.1,48.4,47.9,48.4z"/>
<path id="XMLID_16_" class="st1" d="M50.7,39.2H39.5c-0.2,0-0.4,0.2-0.4,0.4v0.2c0,0.2,0.2,0.4,0.4,0.4h11.1c0.2,0,0.4-0.2,0.4-0.4
	v-0.2C51.1,39.3,50.9,39.2,50.7,39.2z"/>
</svg>
