<?xml version="1.0" encoding="utf-8"?>
<!-- Generator: Adobe Illustrator 19.0.0, SVG Export Plug-In . SVG Version: 6.00 Build 0)  -->
<svg version="1.1" id="Layer_1" xmlns="http://www.w3.org/2000/svg" xmlns:xlink="http://www.w3.org/1999/xlink" x="0px" y="0px"
	 viewBox="0 0 64 64" style="enable-background:new 0 0 64 64;" xml:space="preserve">
<style type="text/css">
	.st0{fill:#629DD4;stroke:#FFFFFF;stroke-width:1.2;stroke-linejoin:round;}
	.st1{fill:#629DD4;}
</style>
<g id="cloudy">
	<g id="XMLID_46_" transform="translate(20,10)">
		<g id="XMLID_47_">
			<path id="XMLID_48_" class="st0" d="M27.7,20c0-4.6-3.7-8.2-8.2-8.2c-1,0-1.9,0.2-2.8,0.5c-0.3-3.4-3.1-6.2-6.6-6.2
				c-3.7,0-6.7,3-6.7,6.7c0,0.8,0.2,1.6,0.4,2.3C3.5,15,3.1,15,2.8,15c-3.7,0-6.7,3-6.7,6.7c0,3.6,2.9,6.6,6.5,6.7h17.2
				C24.2,27.9,27.7,24.4,27.7,20z"/>
		</g>
	</g>
</g>
<path id="XMLID_2_" class="st1" d="M36.7,39.8H18.4c-0.2,0-0.4,0.2-0.4,0.4l0,0c0,0.2,0.2,0.4,0.4,0.4h18.3c0.2,0,0.4-0.2,0.4-0.4
	l0,0C37.1,40,36.9,39.8,36.7,39.8z"/>
<path id="XMLID_6_" class="st1" d="M40,43H21.8c-0.2,0-0.4,0.2-0.4,0.4l0,0c0,0.2,0.2,0.4,0.4,0.4H40c0.2,0,0.4-0.2,0.4-0.4l0,0
	C40.4,43.2,40.3,43,40,43z"/>
<path id="XMLID_5_" class="st1" d="M48.7,41.3H30.4c-0.2,0-0.4,0.2-0.4,0.4l0,0c0,0.2,0.2,0.4,0.4,0.4h18.3c0.2,0,0.4-0.2,0.4-0.4
	l0,0C49.1,41.4,48.9,41.3,48.7,41.3z"/>
</svg>
